ISO-10303-21;
HEADER;
FILE_DESCRIPTION(('ViewDefinition [CoordinationView_V2.0, QuantityTakeOffAddOnView]','RevitIdentifiers [ContentGUID: b04b8876-9154-4b2a-ad55-1d3dc2082394, VersionGUID: c8d8a881-637d-40fd-9c3a-5313f40b8a22, NumberOfSaves: 15]','CoordinateReference [CoordinateBase: Shared Coordinates, ProjectSite: Interno]'),'2;1');
FILE_NAME('CCY_COOR.ifc','2026-09-09T00:05:05-04:00',(''),(''),'ODA SDAI 24.12','Autodesk Revit 25.4.30.30 (ENG) - IFC 25.4.3.0','');
FILE_SCHEMA(('IFC2X3'));
ENDSEC;

DATA;
#1=IFCORGANIZATION($,'Autodesk Revit 2025 (ENG)',$,$,$);
#2=IFCAPPLICATION(#1,'2025','Autodesk Revit 2025 (ENG)','Revit');
#3=IFCCARTESIANPOINT((0.,0.,0.));
#4=IFCCARTESIANPOINT((0.,0.));
#5=IFCDIRECTION((1.,0.,0.));
#6=IFCDIRECTION((-1.,0.,0.));
#7=IFCDIRECTION((0.,1.,0.));
#8=IFCDIRECTION((0.,-1.,0.));
#9=IFCDIRECTION((0.,0.,1.));
#10=IFCDIRECTION((0.,0.,-1.));
#11=IFCDIRECTION((1.,0.));
#12=IFCDIRECTION((-1.,0.));
#13=IFCDIRECTION((0.,1.));
#14=IFCDIRECTION((0.,-1.));
#15=IFCPERSON($,'Asociados','Astudillo',('y','Aparicio'),$,('Ltda.'),$,$);
#16=IFCORGANIZATION($,'Astudillo y Aparicio Asociados Ltda.','Arquitectura e ingenier\X\EDa integrada',$,$);
#17=IFCPERSONANDORGANIZATION(#15,#16,$);
#18=IFCOWNERHISTORY(#17,#2,$,.NOCHANGE.,$,$,$,1737772482);
#19=IFCSIUNIT(*,.LENGTHUNIT.,$,.METRE.);
#20=IFCSIUNIT(*,.AREAUNIT.,$,.SQUARE_METRE.);
#21=IFCSIUNIT(*,.VOLUMEUNIT.,$,.CUBIC_METRE.);
#22=IFCAXIS2PLACEMENT3D(#3,$,$);
#23=IFCDIRECTION((6.123233995736766E-017,1.));
#24=IFCGEOMETRICREPRESENTATIONCONTEXT($,'Model',3,1.0000000000000001E-005,#22,#23);
#25=IFCGEOMETRICREPRESENTATIONSUBCONTEXT('Axis','Model',*,*,*,*,#24,$,.GRAPH_VIEW.,$);
#26=IFCGEOMETRICREPRESENTATIONSUBCONTEXT('Body','Model',*,*,*,*,#24,$,.MODEL_VIEW.,$);
#27=IFCGEOMETRICREPRESENTATIONSUBCONTEXT('Box','Model',*,*,*,*,#24,$,.MODEL_VIEW.,$);
#28=IFCGEOMETRICREPRESENTATIONSUBCONTEXT('FootPrint','Model',*,*,*,*,#24,$,.MODEL_VIEW.,$);
#29=IFCPROJECT('2mIuXsaLHBAgrL7Jqzzzna',#18,'2016_03',$,$,'CESFAM Coyhaique','4',(#24),#1046);
#30=IFCCLASSIFICATION('CSI (Construction Specifications Institute)','1998',$,'Uniformat');
#31=IFCAXIS2PLACEMENT3D(#3,$,$);
#32=IFCLOCALPLACEMENT(#58,#31);
#33=IFCPOSTALADDRESS($,$,$,$,('Calle 2, s/n. Lote 1C.'),$,'','Boston','','MA');
#34=IFCBUILDING('2mIuXsaLHBAgrL7Jqzzznb',#18,'',$,$,#32,$,'',.ELEMENT.,$,$,#33);
#35=IFCCARTESIANPOINT((0.,0.,-4.4000000000006416));
#36=IFCAXIS2PLACEMENT3D(#35,$,$);
#37=IFCLOCALPLACEMENT(#32,#36);
#38=IFCBUILDINGSTOREY('3SSLc2v_51oxgAmmQ7ir_F',#18,'Subterr\X\E1neo 1',$,'Level:Extremo inicial 8 mm',#37,$,'Subterr\X\E1neo 1',.ELEMENT.,-4.4000000000006416);
#39=IFCCARTESIANPOINT((0.,0.,-0.14999999999999622));
#40=IFCAXIS2PLACEMENT3D(#39,$,$);
#41=IFCLOCALPLACEMENT(#32,#40);
#42=IFCBUILDINGSTOREY('3Zu5Bv0LOHrPC10026FoQQ',#18,'Nivel 1',$,'Level:Extremo inicial 8 mm',#41,$,'Nivel 1',.ELEMENT.,-0.14999999999999622);
#43=IFCCARTESIANPOINT((0.,0.,4.1000000000021499));
#44=IFCAXIS2PLACEMENT3D(#43,$,$);
#45=IFCLOCALPLACEMENT(#32,#44);
#46=IFCBUILDINGSTOREY('15Z0v90RiHrPC20026FoKR',#18,'Nivel 2',$,'Level:Extremo inicial 8 mm',#45,$,'Nivel 2',.ELEMENT.,4.1000000000021499);
#47=IFCCARTESIANPOINT((0.,0.,8.3499999999993886));
#48=IFCAXIS2PLACEMENT3D(#47,$,$);
#49=IFCLOCALPLACEMENT(#32,#48);
#50=IFCBUILDINGSTOREY('3SSLc2v_51oxgAmmQ7ir_4',#18,'Nivel 3',$,'Level:Extremo inicial 8 mm',#49,$,'Nivel 3',.ELEMENT.,8.3499999999993886);
#51=IFCCARTESIANPOINT((0.,0.,12.549999999998937));
#52=IFCAXIS2PLACEMENT3D(#51,$,$);
#53=IFCLOCALPLACEMENT(#32,#52);
#54=IFCBUILDINGSTOREY('3SSLc2v_51oxgAmmQ7ir_M',#18,'Nivel 4',$,'Level:Extremo inicial 8 mm',#53,$,'Nivel 4',.ELEMENT.,12.549999999998937);
#55=IFCCARTESIANPOINT((12.661342533836734,-82.573231563762519,317.29999999999961));
#56=IFCDIRECTION((-0.39637753280529775,0.91808760556233704,0.));
#57=IFCAXIS2PLACEMENT3D(#55,#9,#56);
#58=IFCLOCALPLACEMENT($,#57);
#59=IFCSITE('2mIuXsaLHBAgrL7Jqzzznc',#18,'Default',$,$,#58,$,$,.ELEMENT.,(42,21,31,181945),(-71,-3,-24,-263305),0.,$,$);
#60=IFCPROPERTYSINGLEVALUE('Category',$,IFCLABEL('Project Information'),$);
#61=IFCPROPERTYSINGLEVALUE('Client Name',$,IFCTEXT('Servicio de Salud de Ays\X\E9n'),$);
#62=IFCPROPERTYSINGLEVALUE('Project Address',$,IFCTEXT('Calle 2, s/n. Lote 1C.'),$);
#63=IFCPROPERTYSINGLEVALUE('Project Issue Date',$,IFCTEXT('Marzo 2017'),$);
#64=IFCPROPERTYSINGLEVALUE('Project Name',$,IFCTEXT('CESFAM Coyhaique'),$);
#65=IFCPROPERTYSINGLEVALUE('Project Number',$,IFCTEXT('2016_03'),$);
#66=IFCPROPERTYSINGLEVALUE('Project Status',$,IFCTEXT('4'),$);
#67=IFCPROPERTYSINGLEVALUE('Author',$,IFCTEXT('Astudillo y Aparicio Asociados Ltda.'),$);
#68=IFCPROPERTYSINGLEVALUE('Organization Description',$,IFCTEXT('Arquitectura e ingenier\X\EDa integrada'),$);
#69=IFCPROPERTYSINGLEVALUE('Organization Name',$,IFCTEXT('Astudillo y Aparicio Asociados Ltda.'),$);
#70=IFCPROPERTYSET('3zKBgqgRd_Iq7Q8rlEQbWI',#18,'Other',$,(#60,#61,#62,#63,#64,#65,#66));
#71=IFCPROPERTYSET('1ubN4iMoHT6XoGO1V34ROA',#18,'Identity Data',$,(#67,#68,#69));
#72=IFCCARTESIANPOINT((60.050050730226857,-28.997149597985917));
#73=IFCCARTESIANPOINT((-12.8940848962741,-28.997149597985917));
#74=IFCPOLYLINE((#72,#73));
#75=IFCGRIDAXIS('A',#74,.T.);
#76=IFCGEOMETRICCURVESET((#74));
#77=IFCCOLOURRGB($,0.,0.,0.);
#78=IFCCURVESTYLE($,$,$,#77);
#79=IFCPRESENTATIONSTYLEASSIGNMENT((#78));
#80=IFCSTYLEDITEM(#76,(#79),$);
#81=IFCCARTESIANPOINT((60.050050730226857,-15.197149597985634));
#82=IFCCARTESIANPOINT((-12.8940848962741,-15.197149597985634));
#83=IFCPOLYLINE((#81,#82));
#84=IFCGRIDAXIS('B''',#83,.T.);
#85=IFCGEOMETRICCURVESET((#83));
#86=IFCCOLOURRGB($,0.,0.,0.);
#87=IFCCURVESTYLE($,$,$,#86);
#88=IFCPRESENTATIONSTYLEASSIGNMENT((#87));
#89=IFCSTYLEDITEM(#85,(#88),$);
#90=IFCCARTESIANPOINT((60.050050730226857,-11.597149597985684));
#91=IFCCARTESIANPOINT((-12.8940848962741,-11.597149597985684));
#92=IFCPOLYLINE((#90,#91));
#93=IFCGRIDAXIS('C',#92,.T.);
#94=IFCGEOMETRICCURVESET((#92));
#95=IFCCOLOURRGB($,0.,0.,0.);
#96=IFCCURVESTYLE($,$,$,#95);
#97=IFCPRESENTATIONSTYLEASSIGNMENT((#96));
#98=IFCSTYLEDITEM(#94,(#97),$);
#99=IFCCARTESIANPOINT((60.050050730226857,-4.3971495979848259));
#100=IFCCARTESIANPOINT((-12.8940848962741,-4.3971495979848259));
#101=IFCPOLYLINE((#99,#100));
#102=IFCGRIDAXIS('D',#101,.T.);
#103=IFCGEOMETRICCURVESET((#101));
#104=IFCCOLOURRGB($,0.,0.,0.);
#105=IFCCURVESTYLE($,$,$,#104);
#106=IFCPRESENTATIONSTYLEASSIGNMENT((#105));
#107=IFCSTYLEDITEM(#103,(#106),$);
#108=IFCCARTESIANPOINT((60.050050730226857,2.8028504020160412));
#109=IFCCARTESIANPOINT((-12.8940848962741,2.8028504020160412));
#110=IFCPOLYLINE((#108,#109));
#111=IFCGRIDAXIS('E',#110,.T.);
#112=IFCGEOMETRICCURVESET((#110));
#113=IFCCOLOURRGB($,0.,0.,0.);
#114=IFCCURVESTYLE($,$,$,#113);
#115=IFCPRESENTATIONSTYLEASSIGNMENT((#114));
#116=IFCSTYLEDITEM(#112,(#115),$);
#117=IFCCARTESIANPOINT((60.050050730226857,10.002850402013642));
#118=IFCCARTESIANPOINT((-12.8940848962741,10.002850402013642));
#119=IFCPOLYLINE((#117,#118));
#120=IFCGRIDAXIS('F',#119,.T.);
#121=IFCGEOMETRICCURVESET((#119));
#122=IFCCOLOURRGB($,0.,0.,0.);
#123=IFCCURVESTYLE($,$,$,#122);
#124=IFCPRESENTATIONSTYLEASSIGNMENT((#123));
#125=IFCSTYLEDITEM(#121,(#124),$);
#126=IFCCARTESIANPOINT((60.050050730226857,17.20285040201437));
#127=IFCCARTESIANPOINT((-12.8940848962741,17.20285040201437));
#128=IFCPOLYLINE((#126,#127));
#129=IFCGRIDAXIS('G',#128,.T.);
#130=IFCGEOMETRICCURVESET((#128));
#131=IFCCOLOURRGB($,0.,0.,0.);
#132=IFCCURVESTYLE($,$,$,#131);
#133=IFCPRESENTATIONSTYLEASSIGNMENT((#132));
#134=IFCSTYLEDITEM(#130,(#133),$);
#135=IFCCARTESIANPOINT((60.050050730226857,-21.197149597984911));
#136=IFCCARTESIANPOINT((-12.8940848962741,-21.197149597984911));
#137=IFCPOLYLINE((#135,#136));
#138=IFCGRIDAXIS('B',#137,.T.);
#139=IFCGEOMETRICCURVESET((#137));
#140=IFCCOLOURRGB($,0.,0.,0.);
#141=IFCCURVESTYLE($,$,$,#140);
#142=IFCPRESENTATIONSTYLEASSIGNMENT((#141));
#143=IFCSTYLEDITEM(#139,(#142),$);
#144=IFCCARTESIANPOINT((60.050050730226857,20.502850250173594));
#145=IFCCARTESIANPOINT((-12.894084896274107,20.502850250173594));
#146=IFCPOLYLINE((#144,#145));
#147=IFCGRIDAXIS('H',#146,.T.);
#148=IFCGEOMETRICCURVESET((#146));
#149=IFCCOLOURRGB($,0.,0.,0.);
#150=IFCCURVESTYLE($,$,$,#149);
#151=IFCPRESENTATIONSTYLEASSIGNMENT((#150));
#152=IFCSTYLEDITEM(#148,(#151),$);
#153=IFCCARTESIANPOINT((60.050050730226857,15.652850402015277));
#154=IFCCARTESIANPOINT((-12.8940848962741,15.652850402015277));
#155=IFCPOLYLINE((#153,#154));
#156=IFCGRIDAXIS('F''',#155,.T.);
#157=IFCGEOMETRICCURVESET((#155));
#158=IFCCOLOURRGB($,0.,0.,0.);
#159=IFCCURVESTYLE($,$,$,#158);
#160=IFCPRESENTATIONSTYLEASSIGNMENT((#159));
#161=IFCSTYLEDITEM(#157,(#160),$);
#162=IFCCARTESIANPOINT((60.050050730226857,-25.047149597984724));
#163=IFCCARTESIANPOINT((-12.8940848962741,-25.047149597984724));
#164=IFCPOLYLINE((#162,#163));
#165=IFCGRIDAXIS('A''',#164,.T.);
#166=IFCGEOMETRICCURVESET((#164));
#167=IFCCOLOURRGB($,0.,0.,0.);
#168=IFCCURVESTYLE($,$,$,#167);
#169=IFCPRESENTATIONSTYLEASSIGNMENT((#168));
#170=IFCSTYLEDITEM(#166,(#169),$);
#171=IFCCARTESIANPOINT((-6.0311465845627872,-35.691161969056139));
#172=IFCCARTESIANPOINT((-6.0311465845627872,26.046064012291531));
#173=IFCPOLYLINE((#171,#172));
#174=IFCGRIDAXIS('1',#173,.T.);
#175=IFCGEOMETRICCURVESET((#173));
#176=IFCCOLOURRGB($,0.,0.,0.);
#177=IFCCURVESTYLE($,$,$,#176);
#178=IFCPRESENTATIONSTYLEASSIGNMENT((#177));
#179=IFCSTYLEDITEM(#175,(#178),$);
#180=IFCCARTESIANPOINT((4.1688534154372938,-35.691161969056139));
#181=IFCCARTESIANPOINT((4.1688534154372938,26.046064012291531));
#182=IFCPOLYLINE((#180,#181));
#183=IFCGRIDAXIS('2',#182,.T.);
#184=IFCGEOMETRICCURVESET((#182));
#185=IFCCOLOURRGB($,0.,0.,0.);
#186=IFCCURVESTYLE($,$,$,#185);
#187=IFCPRESENTATIONSTYLEASSIGNMENT((#186));
#188=IFCSTYLEDITEM(#184,(#187),$);
#189=IFCCARTESIANPOINT((10.168853415437358,-35.691161969056125));
#190=IFCCARTESIANPOINT((10.168853415437358,26.046064012291531));
#191=IFCPOLYLINE((#189,#190));
#192=IFCGRIDAXIS('3',#191,.T.);
#193=IFCGEOMETRICCURVESET((#191));
#194=IFCCOLOURRGB($,0.,0.,0.);
#195=IFCCURVESTYLE($,$,$,#194);
#196=IFCPRESENTATIONSTYLEASSIGNMENT((#195));
#197=IFCSTYLEDITEM(#193,(#196),$);
#198=IFCCARTESIANPOINT((14.968853415437421,-35.691161969056139));
#199=IFCCARTESIANPOINT((14.968853415437421,26.046064012291531));
#200=IFCPOLYLINE((#198,#199));
#201=IFCGRIDAXIS('4',#200,.T.);
#202=IFCGEOMETRICCURVESET((#200));
#203=IFCCOLOURRGB($,0.,0.,0.);
#204=IFCCURVESTYLE($,$,$,#203);
#205=IFCPRESENTATIONSTYLEASSIGNMENT((#204));
#206=IFCSTYLEDITEM(#202,(#205),$);
#207=IFCCARTESIANPOINT((23.968853415437518,-35.691161969056132));
#208=IFCCARTESIANPOINT((23.968853415437518,26.046064012291531));
#209=IFCPOLYLINE((#207,#208));
#210=IFCGRIDAXIS('5',#209,.T.);
#211=IFCGEOMETRICCURVESET((#209));
#212=IFCCOLOURRGB($,0.,0.,0.);
#213=IFCCURVESTYLE($,$,$,#212);
#214=IFCPRESENTATIONSTYLEASSIGNMENT((#213));
#215=IFCSTYLEDITEM(#211,(#214),$);
#216=IFCCARTESIANPOINT((28.768853415437558,-35.691161969056132));
#217=IFCCARTESIANPOINT((28.768853415437558,26.046064012291531));
#218=IFCPOLYLINE((#216,#217));
#219=IFCGRIDAXIS('6',#218,.T.);
#220=IFCGEOMETRICCURVESET((#218));
#221=IFCCOLOURRGB($,0.,0.,0.);
#222=IFCCURVESTYLE($,$,$,#221);
#223=IFCPRESENTATIONSTYLEASSIGNMENT((#222));
#224=IFCSTYLEDITEM(#220,(#223),$);
#225=IFCCARTESIANPOINT((34.768853415437647,-35.691161969056132));
#226=IFCCARTESIANPOINT((34.768853415437647,26.046064012291531));
#227=IFCPOLYLINE((#225,#226));
#228=IFCGRIDAXIS('7',#227,.T.);
#229=IFCGEOMETRICCURVESET((#227));
#230=IFCCOLOURRGB($,0.,0.,0.);
#231=IFCCURVESTYLE($,$,$,#230);
#232=IFCPRESENTATIONSTYLEASSIGNMENT((#231));
#233=IFCSTYLEDITEM(#229,(#232),$);
#234=IFCCARTESIANPOINT((43.768853415437746,-35.691161969056132));
#235=IFCCARTESIANPOINT((43.768853415437746,26.046064012291531));
#236=IFCPOLYLINE((#234,#235));
#237=IFCGRIDAXIS('8',#236,.T.);
#238=IFCGEOMETRICCURVESET((#236));
#239=IFCCOLOURRGB($,0.,0.,0.);
#240=IFCCURVESTYLE($,$,$,#239);
#241=IFCPRESENTATIONSTYLEASSIGNMENT((#240));
#242=IFCSTYLEDITEM(#238,(#241),$);
#243=IFCCARTESIANPOINT((48.568853415437779,-35.691161969056132));
#244=IFCCARTESIANPOINT((48.568853415437779,26.046064012291531));
#245=IFCPOLYLINE((#243,#244));
#246=IFCGRIDAXIS('9',#245,.T.);
#247=IFCGEOMETRICCURVESET((#245));
#248=IFCCOLOURRGB($,0.,0.,0.);
#249=IFCCURVESTYLE($,$,$,#248);
#250=IFCPRESENTATIONSTYLEASSIGNMENT((#249));
#251=IFCSTYLEDITEM(#247,(#250),$);
#252=IFCCARTESIANPOINT((54.56885341543785,-35.691161969056132));
#253=IFCCARTESIANPOINT((54.56885341543785,26.046064012291531));
#254=IFCPOLYLINE((#252,#253));
#255=IFCGRIDAXIS('10',#254,.T.);
#256=IFCGEOMETRICCURVESET((#254));
#257=IFCCOLOURRGB($,0.,0.,0.);
#258=IFCCURVESTYLE($,$,$,#257);
#259=IFCPRESENTATIONSTYLEASSIGNMENT((#258));
#260=IFCSTYLEDITEM(#256,(#259),$);
#261=IFCCARTESIANPOINT((23.518853415437189,-35.691161969056132));
#262=IFCCARTESIANPOINT((23.518853415437189,26.046064012291531));
#263=IFCPOLYLINE((#261,#262));
#264=IFCGRIDAXIS('4''',#263,.T.);
#265=IFCGEOMETRICCURVESET((#263));
#266=IFCCOLOURRGB($,0.,0.,0.);
#267=IFCCURVESTYLE($,$,$,#266);
#268=IFCPRESENTATIONSTYLEASSIGNMENT((#267));
#269=IFCSTYLEDITEM(#265,(#268),$);
#270=IFCCARTESIANPOINT((35.218853415437216,-35.691161969056132));
#271=IFCCARTESIANPOINT((35.218853415437216,26.046064012291531));
#272=IFCPOLYLINE((#270,#271));
#273=IFCGRIDAXIS('7''',#272,.T.);
#274=IFCGEOMETRICCURVESET((#272));
#275=IFCCOLOURRGB($,0.,0.,0.);
#276=IFCCURVESTYLE($,$,$,#275);
#277=IFCPRESENTATIONSTYLEASSIGNMENT((#276));
#278=IFCSTYLEDITEM(#274,(#277),$);
#279=IFCSHAPEREPRESENTATION(#28,'FootPrint','GeometricCurveSet',(#76,#85,#94,#103,#112,#121,#130,#139,#148,#157,#166,#175,#184,#193,#202,#211,#220,#229,#238,#247,#256,#265,#274));
#280=IFCPRODUCTDEFINITIONSHAPE($,$,(#279));
#281=IFCLOCALPLACEMENT(#32,#36);
#282=IFCGRID('2GhRRrre0JIESLHt4xcHg8',#18,'Default Grid',$,$,#281,#280,(#75,#84,#93,#102,#111,#120,#129,#138,#147,#156,#165),(#174,#183,#192,#201,#210,#219,#228,#237,#246,#255,#264,#273),$);
#283=IFCCARTESIANPOINT((60.050050730226857,-28.997149597985917));
#284=IFCCARTESIANPOINT((-12.8940848962741,-28.997149597985917));
#285=IFCPOLYLINE((#283,#284));
#286=IFCGRIDAXIS('A',#285,.T.);
#287=IFCGEOMETRICCURVESET((#285));
#288=IFCCOLOURRGB($,0.,0.,0.);
#289=IFCCURVESTYLE($,$,$,#288);
#290=IFCPRESENTATIONSTYLEASSIGNMENT((#289));
#291=IFCSTYLEDITEM(#287,(#290),$);
#292=IFCCARTESIANPOINT((60.050050730226857,-15.197149597985634));
#293=IFCCARTESIANPOINT((-12.8940848962741,-15.197149597985634));
#294=IFCPOLYLINE((#292,#293));
#295=IFCGRIDAXIS('B''',#294,.T.);
#296=IFCGEOMETRICCURVESET((#294));
#297=IFCCOLOURRGB($,0.,0.,0.);
#298=IFCCURVESTYLE($,$,$,#297);
#299=IFCPRESENTATIONSTYLEASSIGNMENT((#298));
#300=IFCSTYLEDITEM(#296,(#299),$);
#301=IFCCARTESIANPOINT((60.050050730226857,-11.597149597985684));
#302=IFCCARTESIANPOINT((-12.8940848962741,-11.597149597985684));
#303=IFCPOLYLINE((#301,#302));
#304=IFCGRIDAXIS('C',#303,.T.);
#305=IFCGEOMETRICCURVESET((#303));
#306=IFCCOLOURRGB($,0.,0.,0.);
#307=IFCCURVESTYLE($,$,$,#306);
#308=IFCPRESENTATIONSTYLEASSIGNMENT((#307));
#309=IFCSTYLEDITEM(#305,(#308),$);
#310=IFCCARTESIANPOINT((60.050050730226857,-4.3971495979848259));
#311=IFCCARTESIANPOINT((-12.8940848962741,-4.3971495979848259));
#312=IFCPOLYLINE((#310,#311));
#313=IFCGRIDAXIS('D',#312,.T.);
#314=IFCGEOMETRICCURVESET((#312));
#315=IFCCOLOURRGB($,0.,0.,0.);
#316=IFCCURVESTYLE($,$,$,#315);
#317=IFCPRESENTATIONSTYLEASSIGNMENT((#316));
#318=IFCSTYLEDITEM(#314,(#317),$);
#319=IFCCARTESIANPOINT((60.050050730226857,2.8028504020160412));
#320=IFCCARTESIANPOINT((-12.8940848962741,2.8028504020160412));
#321=IFCPOLYLINE((#319,#320));
#322=IFCGRIDAXIS('E',#321,.T.);
#323=IFCGEOMETRICCURVESET((#321));
#324=IFCCOLOURRGB($,0.,0.,0.);
#325=IFCCURVESTYLE($,$,$,#324);
#326=IFCPRESENTATIONSTYLEASSIGNMENT((#325));
#327=IFCSTYLEDITEM(#323,(#326),$);
#328=IFCCARTESIANPOINT((60.050050730226857,10.002850402013642));
#329=IFCCARTESIANPOINT((-12.8940848962741,10.002850402013642));
#330=IFCPOLYLINE((#328,#329));
#331=IFCGRIDAXIS('F',#330,.T.);
#332=IFCGEOMETRICCURVESET((#330));
#333=IFCCOLOURRGB($,0.,0.,0.);
#334=IFCCURVESTYLE($,$,$,#333);
#335=IFCPRESENTATIONSTYLEASSIGNMENT((#334));
#336=IFCSTYLEDITEM(#332,(#335),$);
#337=IFCCARTESIANPOINT((60.050050730226857,17.20285040201437));
#338=IFCCARTESIANPOINT((-12.8940848962741,17.20285040201437));
#339=IFCPOLYLINE((#337,#338));
#340=IFCGRIDAXIS('G',#339,.T.);
#341=IFCGEOMETRICCURVESET((#339));
#342=IFCCOLOURRGB($,0.,0.,0.);
#343=IFCCURVESTYLE($,$,$,#342);
#344=IFCPRESENTATIONSTYLEASSIGNMENT((#343));
#345=IFCSTYLEDITEM(#341,(#344),$);
#346=IFCCARTESIANPOINT((60.050050730226857,-21.197149597984911));
#347=IFCCARTESIANPOINT((-12.8940848962741,-21.197149597984911));
#348=IFCPOLYLINE((#346,#347));
#349=IFCGRIDAXIS('B',#348,.T.);
#350=IFCGEOMETRICCURVESET((#348));
#351=IFCCOLOURRGB($,0.,0.,0.);
#352=IFCCURVESTYLE($,$,$,#351);
#353=IFCPRESENTATIONSTYLEASSIGNMENT((#352));
#354=IFCSTYLEDITEM(#350,(#353),$);
#355=IFCCARTESIANPOINT((60.050050730226857,20.502850250173594));
#356=IFCCARTESIANPOINT((-12.894084896274107,20.502850250173594));
#357=IFCPOLYLINE((#355,#356));
#358=IFCGRIDAXIS('H',#357,.T.);
#359=IFCGEOMETRICCURVESET((#357));
#360=IFCCOLOURRGB($,0.,0.,0.);
#361=IFCCURVESTYLE($,$,$,#360);
#362=IFCPRESENTATIONSTYLEASSIGNMENT((#361));
#363=IFCSTYLEDITEM(#359,(#362),$);
#364=IFCCARTESIANPOINT((60.050050730226857,15.652850402015277));
#365=IFCCARTESIANPOINT((-12.8940848962741,15.652850402015277));
#366=IFCPOLYLINE((#364,#365));
#367=IFCGRIDAXIS('F''',#366,.T.);
#368=IFCGEOMETRICCURVESET((#366));
#369=IFCCOLOURRGB($,0.,0.,0.);
#370=IFCCURVESTYLE($,$,$,#369);
#371=IFCPRESENTATIONSTYLEASSIGNMENT((#370));
#372=IFCSTYLEDITEM(#368,(#371),$);
#373=IFCCARTESIANPOINT((60.050050730226857,-25.047149597984724));
#374=IFCCARTESIANPOINT((-12.8940848962741,-25.047149597984724));
#375=IFCPOLYLINE((#373,#374));
#376=IFCGRIDAXIS('A''',#375,.T.);
#377=IFCGEOMETRICCURVESET((#375));
#378=IFCCOLOURRGB($,0.,0.,0.);
#379=IFCCURVESTYLE($,$,$,#378);
#380=IFCPRESENTATIONSTYLEASSIGNMENT((#379));
#381=IFCSTYLEDITEM(#377,(#380),$);
#382=IFCCARTESIANPOINT((-6.0311465845627872,-35.691161969056139));
#383=IFCCARTESIANPOINT((-6.0311465845627872,26.046064012291531));
#384=IFCPOLYLINE((#382,#383));
#385=IFCGRIDAXIS('1',#384,.T.);
#386=IFCGEOMETRICCURVESET((#384));
#387=IFCCOLOURRGB($,0.,0.,0.);
#388=IFCCURVESTYLE($,$,$,#387);
#389=IFCPRESENTATIONSTYLEASSIGNMENT((#388));
#390=IFCSTYLEDITEM(#386,(#389),$);
#391=IFCCARTESIANPOINT((4.1688534154372938,-35.691161969056139));
#392=IFCCARTESIANPOINT((4.1688534154372938,26.046064012291531));
#393=IFCPOLYLINE((#391,#392));
#394=IFCGRIDAXIS('2',#393,.T.);
#395=IFCGEOMETRICCURVESET((#393));
#396=IFCCOLOURRGB($,0.,0.,0.);
#397=IFCCURVESTYLE($,$,$,#396);
#398=IFCPRESENTATIONSTYLEASSIGNMENT((#397));
#399=IFCSTYLEDITEM(#395,(#398),$);
#400=IFCCARTESIANPOINT((10.168853415437358,-35.691161969056125));
#401=IFCCARTESIANPOINT((10.168853415437358,26.046064012291531));
#402=IFCPOLYLINE((#400,#401));
#403=IFCGRIDAXIS('3',#402,.T.);
#404=IFCGEOMETRICCURVESET((#402));
#405=IFCCOLOURRGB($,0.,0.,0.);
#406=IFCCURVESTYLE($,$,$,#405);
#407=IFCPRESENTATIONSTYLEASSIGNMENT((#406));
#408=IFCSTYLEDITEM(#404,(#407),$);
#409=IFCCARTESIANPOINT((14.968853415437421,-35.691161969056139));
#410=IFCCARTESIANPOINT((14.968853415437421,26.046064012291531));
#411=IFCPOLYLINE((#409,#410));
#412=IFCGRIDAXIS('4',#411,.T.);
#413=IFCGEOMETRICCURVESET((#411));
#414=IFCCOLOURRGB($,0.,0.,0.);
#415=IFCCURVESTYLE($,$,$,#414);
#416=IFCPRESENTATIONSTYLEASSIGNMENT((#415));
#417=IFCSTYLEDITEM(#413,(#416),$);
#418=IFCCARTESIANPOINT((23.968853415437518,-35.691161969056132));
#419=IFCCARTESIANPOINT((23.968853415437518,26.046064012291531));
#420=IFCPOLYLINE((#418,#419));
#421=IFCGRIDAXIS('5',#420,.T.);
#422=IFCGEOMETRICCURVESET((#420));
#423=IFCCOLOURRGB($,0.,0.,0.);
#424=IFCCURVESTYLE($,$,$,#423);
#425=IFCPRESENTATIONSTYLEASSIGNMENT((#424));
#426=IFCSTYLEDITEM(#422,(#425),$);
#427=IFCCARTESIANPOINT((28.768853415437558,-35.691161969056132));
#428=IFCCARTESIANPOINT((28.768853415437558,26.046064012291531));
#429=IFCPOLYLINE((#427,#428));
#430=IFCGRIDAXIS('6',#429,.T.);
#431=IFCGEOMETRICCURVESET((#429));
#432=IFCCOLOURRGB($,0.,0.,0.);
#433=IFCCURVESTYLE($,$,$,#432);
#434=IFCPRESENTATIONSTYLEASSIGNMENT((#433));
#435=IFCSTYLEDITEM(#431,(#434),$);
#436=IFCCARTESIANPOINT((34.768853415437647,-35.691161969056132));
#437=IFCCARTESIANPOINT((34.768853415437647,26.046064012291531));
#438=IFCPOLYLINE((#436,#437));
#439=IFCGRIDAXIS('7',#438,.T.);
#440=IFCGEOMETRICCURVESET((#438));
#441=IFCCOLOURRGB($,0.,0.,0.);
#442=IFCCURVESTYLE($,$,$,#441);
#443=IFCPRESENTATIONSTYLEASSIGNMENT((#442));
#444=IFCSTYLEDITEM(#440,(#443),$);
#445=IFCCARTESIANPOINT((43.768853415437746,-35.691161969056132));
#446=IFCCARTESIANPOINT((43.768853415437746,26.046064012291531));
#447=IFCPOLYLINE((#445,#446));
#448=IFCGRIDAXIS('8',#447,.T.);
#449=IFCGEOMETRICCURVESET((#447));
#450=IFCCOLOURRGB($,0.,0.,0.);
#451=IFCCURVESTYLE($,$,$,#450);
#452=IFCPRESENTATIONSTYLEASSIGNMENT((#451));
#453=IFCSTYLEDITEM(#449,(#452),$);
#454=IFCCARTESIANPOINT((48.568853415437779,-35.691161969056132));
#455=IFCCARTESIANPOINT((48.568853415437779,26.046064012291531));
#456=IFCPOLYLINE((#454,#455));
#457=IFCGRIDAXIS('9',#456,.T.);
#458=IFCGEOMETRICCURVESET((#456));
#459=IFCCOLOURRGB($,0.,0.,0.);
#460=IFCCURVESTYLE($,$,$,#459);
#461=IFCPRESENTATIONSTYLEASSIGNMENT((#460));
#462=IFCSTYLEDITEM(#458,(#461),$);
#463=IFCCARTESIANPOINT((54.56885341543785,-35.691161969056132));
#464=IFCCARTESIANPOINT((54.56885341543785,26.046064012291531));
#465=IFCPOLYLINE((#463,#464));
#466=IFCGRIDAXIS('10',#465,.T.);
#467=IFCGEOMETRICCURVESET((#465));
#468=IFCCOLOURRGB($,0.,0.,0.);
#469=IFCCURVESTYLE($,$,$,#468);
#470=IFCPRESENTATIONSTYLEASSIGNMENT((#469));
#471=IFCSTYLEDITEM(#467,(#470),$);
#472=IFCCARTESIANPOINT((23.518853415437189,-35.691161969056132));
#473=IFCCARTESIANPOINT((23.518853415437189,26.046064012291531));
#474=IFCPOLYLINE((#472,#473));
#475=IFCGRIDAXIS('4''',#474,.T.);
#476=IFCGEOMETRICCURVESET((#474));
#477=IFCCOLOURRGB($,0.,0.,0.);
#478=IFCCURVESTYLE($,$,$,#477);
#479=IFCPRESENTATIONSTYLEASSIGNMENT((#478));
#480=IFCSTYLEDITEM(#476,(#479),$);
#481=IFCCARTESIANPOINT((35.218853415437216,-35.691161969056132));
#482=IFCCARTESIANPOINT((35.218853415437216,26.046064012291531));
#483=IFCPOLYLINE((#481,#482));
#484=IFCGRIDAXIS('7''',#483,.T.);
#485=IFCGEOMETRICCURVESET((#483));
#486=IFCCOLOURRGB($,0.,0.,0.);
#487=IFCCURVESTYLE($,$,$,#486);
#488=IFCPRESENTATIONSTYLEASSIGNMENT((#487));
#489=IFCSTYLEDITEM(#485,(#488),$);
#490=IFCSHAPEREPRESENTATION(#28,'FootPrint','GeometricCurveSet',(#287,#296,#305,#314,#323,#332,#341,#350,#359,#368,#377,#386,#395,#404,#413,#422,#431,#440,#449,#458,#467,#476,#485));
#491=IFCPRODUCTDEFINITIONSHAPE($,$,(#490));
#492=IFCLOCALPLACEMENT(#32,#40);
#493=IFCGRID('3AgqoeXbv6v062u$g2AJy6',#18,'Default Grid',$,$,#492,#491,(#286,#295,#304,#313,#322,#331,#340,#349,#358,#367,#376),(#385,#394,#403,#412,#421,#430,#439,#448,#457,#466,#475,#484),$);
#494=IFCCARTESIANPOINT((60.050050730226857,-28.997149597985917));
#495=IFCCARTESIANPOINT((-12.8940848962741,-28.997149597985917));
#496=IFCPOLYLINE((#494,#495));
#497=IFCGRIDAXIS('A',#496,.T.);
#498=IFCGEOMETRICCURVESET((#496));
#499=IFCCOLOURRGB($,0.,0.,0.);
#500=IFCCURVESTYLE($,$,$,#499);
#501=IFCPRESENTATIONSTYLEASSIGNMENT((#500));
#502=IFCSTYLEDITEM(#498,(#501),$);
#503=IFCCARTESIANPOINT((60.050050730226857,-15.197149597985634));
#504=IFCCARTESIANPOINT((-12.8940848962741,-15.197149597985634));
#505=IFCPOLYLINE((#503,#504));
#506=IFCGRIDAXIS('B''',#505,.T.);
#507=IFCGEOMETRICCURVESET((#505));
#508=IFCCOLOURRGB($,0.,0.,0.);
#509=IFCCURVESTYLE($,$,$,#508);
#510=IFCPRESENTATIONSTYLEASSIGNMENT((#509));
#511=IFCSTYLEDITEM(#507,(#510),$);
#512=IFCCARTESIANPOINT((60.050050730226857,-11.597149597985684));
#513=IFCCARTESIANPOINT((-12.8940848962741,-11.597149597985684));
#514=IFCPOLYLINE((#512,#513));
#515=IFCGRIDAXIS('C',#514,.T.);
#516=IFCGEOMETRICCURVESET((#514));
#517=IFCCOLOURRGB($,0.,0.,0.);
#518=IFCCURVESTYLE($,$,$,#517);
#519=IFCPRESENTATIONSTYLEASSIGNMENT((#518));
#520=IFCSTYLEDITEM(#516,(#519),$);
#521=IFCCARTESIANPOINT((60.050050730226857,-4.3971495979848259));
#522=IFCCARTESIANPOINT((-12.8940848962741,-4.3971495979848259));
#523=IFCPOLYLINE((#521,#522));
#524=IFCGRIDAXIS('D',#523,.T.);
#525=IFCGEOMETRICCURVESET((#523));
#526=IFCCOLOURRGB($,0.,0.,0.);
#527=IFCCURVESTYLE($,$,$,#526);
#528=IFCPRESENTATIONSTYLEASSIGNMENT((#527));
#529=IFCSTYLEDITEM(#525,(#528),$);
#530=IFCCARTESIANPOINT((60.050050730226857,2.8028504020160412));
#531=IFCCARTESIANPOINT((-12.8940848962741,2.8028504020160412));
#532=IFCPOLYLINE((#530,#531));
#533=IFCGRIDAXIS('E',#532,.T.);
#534=IFCGEOMETRICCURVESET((#532));
#535=IFCCOLOURRGB($,0.,0.,0.);
#536=IFCCURVESTYLE($,$,$,#535);
#537=IFCPRESENTATIONSTYLEASSIGNMENT((#536));
#538=IFCSTYLEDITEM(#534,(#537),$);
#539=IFCCARTESIANPOINT((60.050050730226857,10.002850402013642));
#540=IFCCARTESIANPOINT((-12.8940848962741,10.002850402013642));
#541=IFCPOLYLINE((#539,#540));
#542=IFCGRIDAXIS('F',#541,.T.);
#543=IFCGEOMETRICCURVESET((#541));
#544=IFCCOLOURRGB($,0.,0.,0.);
#545=IFCCURVESTYLE($,$,$,#544);
#546=IFCPRESENTATIONSTYLEASSIGNMENT((#545));
#547=IFCSTYLEDITEM(#543,(#546),$);
#548=IFCCARTESIANPOINT((60.050050730226857,17.20285040201437));
#549=IFCCARTESIANPOINT((-12.8940848962741,17.20285040201437));
#550=IFCPOLYLINE((#548,#549));
#551=IFCGRIDAXIS('G',#550,.T.);
#552=IFCGEOMETRICCURVESET((#550));
#553=IFCCOLOURRGB($,0.,0.,0.);
#554=IFCCURVESTYLE($,$,$,#553);
#555=IFCPRESENTATIONSTYLEASSIGNMENT((#554));
#556=IFCSTYLEDITEM(#552,(#555),$);
#557=IFCCARTESIANPOINT((60.050050730226857,-21.197149597984911));
#558=IFCCARTESIANPOINT((-12.8940848962741,-21.197149597984911));
#559=IFCPOLYLINE((#557,#558));
#560=IFCGRIDAXIS('B',#559,.T.);
#561=IFCGEOMETRICCURVESET((#559));
#562=IFCCOLOURRGB($,0.,0.,0.);
#563=IFCCURVESTYLE($,$,$,#562);
#564=IFCPRESENTATIONSTYLEASSIGNMENT((#563));
#565=IFCSTYLEDITEM(#561,(#564),$);
#566=IFCCARTESIANPOINT((60.050050730226857,20.502850250173594));
#567=IFCCARTESIANPOINT((-12.894084896274107,20.502850250173594));
#568=IFCPOLYLINE((#566,#567));
#569=IFCGRIDAXIS('H',#568,.T.);
#570=IFCGEOMETRICCURVESET((#568));
#571=IFCCOLOURRGB($,0.,0.,0.);
#572=IFCCURVESTYLE($,$,$,#571);
#573=IFCPRESENTATIONSTYLEASSIGNMENT((#572));
#574=IFCSTYLEDITEM(#570,(#573),$);
#575=IFCCARTESIANPOINT((60.050050730226857,15.652850402015277));
#576=IFCCARTESIANPOINT((-12.8940848962741,15.652850402015277));
#577=IFCPOLYLINE((#575,#576));
#578=IFCGRIDAXIS('F''',#577,.T.);
#579=IFCGEOMETRICCURVESET((#577));
#580=IFCCOLOURRGB($,0.,0.,0.);
#581=IFCCURVESTYLE($,$,$,#580);
#582=IFCPRESENTATIONSTYLEASSIGNMENT((#581));
#583=IFCSTYLEDITEM(#579,(#582),$);
#584=IFCCARTESIANPOINT((60.050050730226857,-25.047149597984724));
#585=IFCCARTESIANPOINT((-12.8940848962741,-25.047149597984724));
#586=IFCPOLYLINE((#584,#585));
#587=IFCGRIDAXIS('A''',#586,.T.);
#588=IFCGEOMETRICCURVESET((#586));
#589=IFCCOLOURRGB($,0.,0.,0.);
#590=IFCCURVESTYLE($,$,$,#589);
#591=IFCPRESENTATIONSTYLEASSIGNMENT((#590));
#592=IFCSTYLEDITEM(#588,(#591),$);
#593=IFCCARTESIANPOINT((-6.0311465845627872,-35.691161969056139));
#594=IFCCARTESIANPOINT((-6.0311465845627872,26.046064012291531));
#595=IFCPOLYLINE((#593,#594));
#596=IFCGRIDAXIS('1',#595,.T.);
#597=IFCGEOMETRICCURVESET((#595));
#598=IFCCOLOURRGB($,0.,0.,0.);
#599=IFCCURVESTYLE($,$,$,#598);
#600=IFCPRESENTATIONSTYLEASSIGNMENT((#599));
#601=IFCSTYLEDITEM(#597,(#600),$);
#602=IFCCARTESIANPOINT((4.1688534154372938,-35.691161969056139));
#603=IFCCARTESIANPOINT((4.1688534154372938,26.046064012291531));
#604=IFCPOLYLINE((#602,#603));
#605=IFCGRIDAXIS('2',#604,.T.);
#606=IFCGEOMETRICCURVESET((#604));
#607=IFCCOLOURRGB($,0.,0.,0.);
#608=IFCCURVESTYLE($,$,$,#607);
#609=IFCPRESENTATIONSTYLEASSIGNMENT((#608));
#610=IFCSTYLEDITEM(#606,(#609),$);
#611=IFCCARTESIANPOINT((10.168853415437358,-35.691161969056125));
#612=IFCCARTESIANPOINT((10.168853415437358,26.046064012291531));
#613=IFCPOLYLINE((#611,#612));
#614=IFCGRIDAXIS('3',#613,.T.);
#615=IFCGEOMETRICCURVESET((#613));
#616=IFCCOLOURRGB($,0.,0.,0.);
#617=IFCCURVESTYLE($,$,$,#616);
#618=IFCPRESENTATIONSTYLEASSIGNMENT((#617));
#619=IFCSTYLEDITEM(#615,(#618),$);
#620=IFCCARTESIANPOINT((14.968853415437421,-35.691161969056139));
#621=IFCCARTESIANPOINT((14.968853415437421,26.046064012291531));
#622=IFCPOLYLINE((#620,#621));
#623=IFCGRIDAXIS('4',#622,.T.);
#624=IFCGEOMETRICCURVESET((#622));
#625=IFCCOLOURRGB($,0.,0.,0.);
#626=IFCCURVESTYLE($,$,$,#625);
#627=IFCPRESENTATIONSTYLEASSIGNMENT((#626));
#628=IFCSTYLEDITEM(#624,(#627),$);
#629=IFCCARTESIANPOINT((23.968853415437518,-35.691161969056132));
#630=IFCCARTESIANPOINT((23.968853415437518,26.046064012291531));
#631=IFCPOLYLINE((#629,#630));
#632=IFCGRIDAXIS('5',#631,.T.);
#633=IFCGEOMETRICCURVESET((#631));
#634=IFCCOLOURRGB($,0.,0.,0.);
#635=IFCCURVESTYLE($,$,$,#634);
#636=IFCPRESENTATIONSTYLEASSIGNMENT((#635));
#637=IFCSTYLEDITEM(#633,(#636),$);
#638=IFCCARTESIANPOINT((28.768853415437558,-35.691161969056132));
#639=IFCCARTESIANPOINT((28.768853415437558,26.046064012291531));
#640=IFCPOLYLINE((#638,#639));
#641=IFCGRIDAXIS('6',#640,.T.);
#642=IFCGEOMETRICCURVESET((#640));
#643=IFCCOLOURRGB($,0.,0.,0.);
#644=IFCCURVESTYLE($,$,$,#643);
#645=IFCPRESENTATIONSTYLEASSIGNMENT((#644));
#646=IFCSTYLEDITEM(#642,(#645),$);
#647=IFCCARTESIANPOINT((34.768853415437647,-35.691161969056132));
#648=IFCCARTESIANPOINT((34.768853415437647,26.046064012291531));
#649=IFCPOLYLINE((#647,#648));
#650=IFCGRIDAXIS('7',#649,.T.);
#651=IFCGEOMETRICCURVESET((#649));
#652=IFCCOLOURRGB($,0.,0.,0.);
#653=IFCCURVESTYLE($,$,$,#652);
#654=IFCPRESENTATIONSTYLEASSIGNMENT((#653));
#655=IFCSTYLEDITEM(#651,(#654),$);
#656=IFCCARTESIANPOINT((43.768853415437746,-35.691161969056132));
#657=IFCCARTESIANPOINT((43.768853415437746,26.046064012291531));
#658=IFCPOLYLINE((#656,#657));
#659=IFCGRIDAXIS('8',#658,.T.);
#660=IFCGEOMETRICCURVESET((#658));
#661=IFCCOLOURRGB($,0.,0.,0.);
#662=IFCCURVESTYLE($,$,$,#661);
#663=IFCPRESENTATIONSTYLEASSIGNMENT((#662));
#664=IFCSTYLEDITEM(#660,(#663),$);
#665=IFCCARTESIANPOINT((48.568853415437779,-35.691161969056132));
#666=IFCCARTESIANPOINT((48.568853415437779,26.046064012291531));
#667=IFCPOLYLINE((#665,#666));
#668=IFCGRIDAXIS('9',#667,.T.);
#669=IFCGEOMETRICCURVESET((#667));
#670=IFCCOLOURRGB($,0.,0.,0.);
#671=IFCCURVESTYLE($,$,$,#670);
#672=IFCPRESENTATIONSTYLEASSIGNMENT((#671));
#673=IFCSTYLEDITEM(#669,(#672),$);
#674=IFCCARTESIANPOINT((54.56885341543785,-35.691161969056132));
#675=IFCCARTESIANPOINT((54.56885341543785,26.046064012291531));
#676=IFCPOLYLINE((#674,#675));
#677=IFCGRIDAXIS('10',#676,.T.);
#678=IFCGEOMETRICCURVESET((#676));
#679=IFCCOLOURRGB($,0.,0.,0.);
#680=IFCCURVESTYLE($,$,$,#679);
#681=IFCPRESENTATIONSTYLEASSIGNMENT((#680));
#682=IFCSTYLEDITEM(#678,(#681),$);
#683=IFCCARTESIANPOINT((23.518853415437189,-35.691161969056132));
#684=IFCCARTESIANPOINT((23.518853415437189,26.046064012291531));
#685=IFCPOLYLINE((#683,#684));
#686=IFCGRIDAXIS('4''',#685,.T.);
#687=IFCGEOMETRICCURVESET((#685));
#688=IFCCOLOURRGB($,0.,0.,0.);
#689=IFCCURVESTYLE($,$,$,#688);
#690=IFCPRESENTATIONSTYLEASSIGNMENT((#689));
#691=IFCSTYLEDITEM(#687,(#690),$);
#692=IFCCARTESIANPOINT((35.218853415437216,-35.691161969056132));
#693=IFCCARTESIANPOINT((35.218853415437216,26.046064012291531));
#694=IFCPOLYLINE((#692,#693));
#695=IFCGRIDAXIS('7''',#694,.T.);
#696=IFCGEOMETRICCURVESET((#694));
#697=IFCCOLOURRGB($,0.,0.,0.);
#698=IFCCURVESTYLE($,$,$,#697);
#699=IFCPRESENTATIONSTYLEASSIGNMENT((#698));
#700=IFCSTYLEDITEM(#696,(#699),$);
#701=IFCSHAPEREPRESENTATION(#28,'FootPrint','GeometricCurveSet',(#498,#507,#516,#525,#534,#543,#552,#561,#570,#579,#588,#597,#606,#615,#624,#633,#642,#651,#660,#669,#678,#687,#696));
#702=IFCPRODUCTDEFINITIONSHAPE($,$,(#701));
#703=IFCLOCALPLACEMENT(#32,#44);
#704=IFCGRID('3XJp$MvT8r7jWcckIhemUp',#18,'Default Grid',$,$,#703,#702,(#497,#506,#515,#524,#533,#542,#551,#560,#569,#578,#587),(#596,#605,#614,#623,#632,#641,#650,#659,#668,#677,#686,#695),$);
#705=IFCCARTESIANPOINT((60.050050730226857,-28.997149597985917));
#706=IFCCARTESIANPOINT((-12.8940848962741,-28.997149597985917));
#707=IFCPOLYLINE((#705,#706));
#708=IFCGRIDAXIS('A',#707,.T.);
#709=IFCGEOMETRICCURVESET((#707));
#710=IFCCOLOURRGB($,0.,0.,0.);
#711=IFCCURVESTYLE($,$,$,#710);
#712=IFCPRESENTATIONSTYLEASSIGNMENT((#711));
#713=IFCSTYLEDITEM(#709,(#712),$);
#714=IFCCARTESIANPOINT((60.050050730226857,-15.197149597985634));
#715=IFCCARTESIANPOINT((-12.8940848962741,-15.197149597985634));
#716=IFCPOLYLINE((#714,#715));
#717=IFCGRIDAXIS('B''',#716,.T.);
#718=IFCGEOMETRICCURVESET((#716));
#719=IFCCOLOURRGB($,0.,0.,0.);
#720=IFCCURVESTYLE($,$,$,#719);
#721=IFCPRESENTATIONSTYLEASSIGNMENT((#720));
#722=IFCSTYLEDITEM(#718,(#721),$);
#723=IFCCARTESIANPOINT((60.050050730226857,-11.597149597985684));
#724=IFCCARTESIANPOINT((-12.8940848962741,-11.597149597985684));
#725=IFCPOLYLINE((#723,#724));
#726=IFCGRIDAXIS('C',#725,.T.);
#727=IFCGEOMETRICCURVESET((#725));
#728=IFCCOLOURRGB($,0.,0.,0.);
#729=IFCCURVESTYLE($,$,$,#728);
#730=IFCPRESENTATIONSTYLEASSIGNMENT((#729));
#731=IFCSTYLEDITEM(#727,(#730),$);
#732=IFCCARTESIANPOINT((60.050050730226857,-4.3971495979848259));
#733=IFCCARTESIANPOINT((-12.8940848962741,-4.3971495979848259));
#734=IFCPOLYLINE((#732,#733));
#735=IFCGRIDAXIS('D',#734,.T.);
#736=IFCGEOMETRICCURVESET((#734));
#737=IFCCOLOURRGB($,0.,0.,0.);
#738=IFCCURVESTYLE($,$,$,#737);
#739=IFCPRESENTATIONSTYLEASSIGNMENT((#738));
#740=IFCSTYLEDITEM(#736,(#739),$);
#741=IFCCARTESIANPOINT((60.050050730226857,2.8028504020160412));
#742=IFCCARTESIANPOINT((-12.8940848962741,2.8028504020160412));
#743=IFCPOLYLINE((#741,#742));
#744=IFCGRIDAXIS('E',#743,.T.);
#745=IFCGEOMETRICCURVESET((#743));
#746=IFCCOLOURRGB($,0.,0.,0.);
#747=IFCCURVESTYLE($,$,$,#746);
#748=IFCPRESENTATIONSTYLEASSIGNMENT((#747));
#749=IFCSTYLEDITEM(#745,(#748),$);
#750=IFCCARTESIANPOINT((60.050050730226857,10.002850402013642));
#751=IFCCARTESIANPOINT((-12.8940848962741,10.002850402013642));
#752=IFCPOLYLINE((#750,#751));
#753=IFCGRIDAXIS('F',#752,.T.);
#754=IFCGEOMETRICCURVESET((#752));
#755=IFCCOLOURRGB($,0.,0.,0.);
#756=IFCCURVESTYLE($,$,$,#755);
#757=IFCPRESENTATIONSTYLEASSIGNMENT((#756));
#758=IFCSTYLEDITEM(#754,(#757),$);
#759=IFCCARTESIANPOINT((60.050050730226857,17.20285040201437));
#760=IFCCARTESIANPOINT((-12.8940848962741,17.20285040201437));
#761=IFCPOLYLINE((#759,#760));
#762=IFCGRIDAXIS('G',#761,.T.);
#763=IFCGEOMETRICCURVESET((#761));
#764=IFCCOLOURRGB($,0.,0.,0.);
#765=IFCCURVESTYLE($,$,$,#764);
#766=IFCPRESENTATIONSTYLEASSIGNMENT((#765));
#767=IFCSTYLEDITEM(#763,(#766),$);
#768=IFCCARTESIANPOINT((60.050050730226857,-21.197149597984911));
#769=IFCCARTESIANPOINT((-12.8940848962741,-21.197149597984911));
#770=IFCPOLYLINE((#768,#769));
#771=IFCGRIDAXIS('B',#770,.T.);
#772=IFCGEOMETRICCURVESET((#770));
#773=IFCCOLOURRGB($,0.,0.,0.);
#774=IFCCURVESTYLE($,$,$,#773);
#775=IFCPRESENTATIONSTYLEASSIGNMENT((#774));
#776=IFCSTYLEDITEM(#772,(#775),$);
#777=IFCCARTESIANPOINT((60.050050730226857,20.502850250173594));
#778=IFCCARTESIANPOINT((-12.894084896274107,20.502850250173594));
#779=IFCPOLYLINE((#777,#778));
#780=IFCGRIDAXIS('H',#779,.T.);
#781=IFCGEOMETRICCURVESET((#779));
#782=IFCCOLOURRGB($,0.,0.,0.);
#783=IFCCURVESTYLE($,$,$,#782);
#784=IFCPRESENTATIONSTYLEASSIGNMENT((#783));
#785=IFCSTYLEDITEM(#781,(#784),$);
#786=IFCCARTESIANPOINT((60.050050730226857,15.652850402015277));
#787=IFCCARTESIANPOINT((-12.8940848962741,15.652850402015277));
#788=IFCPOLYLINE((#786,#787));
#789=IFCGRIDAXIS('F''',#788,.T.);
#790=IFCGEOMETRICCURVESET((#788));
#791=IFCCOLOURRGB($,0.,0.,0.);
#792=IFCCURVESTYLE($,$,$,#791);
#793=IFCPRESENTATIONSTYLEASSIGNMENT((#792));
#794=IFCSTYLEDITEM(#790,(#793),$);
#795=IFCCARTESIANPOINT((60.050050730226857,-25.047149597984724));
#796=IFCCARTESIANPOINT((-12.8940848962741,-25.047149597984724));
#797=IFCPOLYLINE((#795,#796));
#798=IFCGRIDAXIS('A''',#797,.T.);
#799=IFCGEOMETRICCURVESET((#797));
#800=IFCCOLOURRGB($,0.,0.,0.);
#801=IFCCURVESTYLE($,$,$,#800);
#802=IFCPRESENTATIONSTYLEASSIGNMENT((#801));
#803=IFCSTYLEDITEM(#799,(#802),$);
#804=IFCCARTESIANPOINT((-6.0311465845627872,-35.691161969056139));
#805=IFCCARTESIANPOINT((-6.0311465845627872,26.046064012291531));
#806=IFCPOLYLINE((#804,#805));
#807=IFCGRIDAXIS('1',#806,.T.);
#808=IFCGEOMETRICCURVESET((#806));
#809=IFCCOLOURRGB($,0.,0.,0.);
#810=IFCCURVESTYLE($,$,$,#809);
#811=IFCPRESENTATIONSTYLEASSIGNMENT((#810));
#812=IFCSTYLEDITEM(#808,(#811),$);
#813=IFCCARTESIANPOINT((4.1688534154372938,-35.691161969056139));
#814=IFCCARTESIANPOINT((4.1688534154372938,26.046064012291531));
#815=IFCPOLYLINE((#813,#814));
#816=IFCGRIDAXIS('2',#815,.T.);
#817=IFCGEOMETRICCURVESET((#815));
#818=IFCCOLOURRGB($,0.,0.,0.);
#819=IFCCURVESTYLE($,$,$,#818);
#820=IFCPRESENTATIONSTYLEASSIGNMENT((#819));
#821=IFCSTYLEDITEM(#817,(#820),$);
#822=IFCCARTESIANPOINT((10.168853415437358,-35.691161969056125));
#823=IFCCARTESIANPOINT((10.168853415437358,26.046064012291531));
#824=IFCPOLYLINE((#822,#823));
#825=IFCGRIDAXIS('3',#824,.T.);
#826=IFCGEOMETRICCURVESET((#824));
#827=IFCCOLOURRGB($,0.,0.,0.);
#828=IFCCURVESTYLE($,$,$,#827);
#829=IFCPRESENTATIONSTYLEASSIGNMENT((#828));
#830=IFCSTYLEDITEM(#826,(#829),$);
#831=IFCCARTESIANPOINT((14.968853415437421,-35.691161969056139));
#832=IFCCARTESIANPOINT((14.968853415437421,26.046064012291531));
#833=IFCPOLYLINE((#831,#832));
#834=IFCGRIDAXIS('4',#833,.T.);
#835=IFCGEOMETRICCURVESET((#833));
#836=IFCCOLOURRGB($,0.,0.,0.);
#837=IFCCURVESTYLE($,$,$,#836);
#838=IFCPRESENTATIONSTYLEASSIGNMENT((#837));
#839=IFCSTYLEDITEM(#835,(#838),$);
#840=IFCCARTESIANPOINT((23.968853415437518,-35.691161969056132));
#841=IFCCARTESIANPOINT((23.968853415437518,26.046064012291531));
#842=IFCPOLYLINE((#840,#841));
#843=IFCGRIDAXIS('5',#842,.T.);
#844=IFCGEOMETRICCURVESET((#842));
#845=IFCCOLOURRGB($,0.,0.,0.);
#846=IFCCURVESTYLE($,$,$,#845);
#847=IFCPRESENTATIONSTYLEASSIGNMENT((#846));
#848=IFCSTYLEDITEM(#844,(#847),$);
#849=IFCCARTESIANPOINT((28.768853415437558,-35.691161969056132));
#850=IFCCARTESIANPOINT((28.768853415437558,26.046064012291531));
#851=IFCPOLYLINE((#849,#850));
#852=IFCGRIDAXIS('6',#851,.T.);
#853=IFCGEOMETRICCURVESET((#851));
#854=IFCCOLOURRGB($,0.,0.,0.);
#855=IFCCURVESTYLE($,$,$,#854);
#856=IFCPRESENTATIONSTYLEASSIGNMENT((#855));
#857=IFCSTYLEDITEM(#853,(#856),$);
#858=IFCCARTESIANPOINT((34.768853415437647,-35.691161969056132));
#859=IFCCARTESIANPOINT((34.768853415437647,26.046064012291531));
#860=IFCPOLYLINE((#858,#859));
#861=IFCGRIDAXIS('7',#860,.T.);
#862=IFCGEOMETRICCURVESET((#860));
#863=IFCCOLOURRGB($,0.,0.,0.);
#864=IFCCURVESTYLE($,$,$,#863);
#865=IFCPRESENTATIONSTYLEASSIGNMENT((#864));
#866=IFCSTYLEDITEM(#862,(#865),$);
#867=IFCCARTESIANPOINT((43.768853415437746,-35.691161969056132));
#868=IFCCARTESIANPOINT((43.768853415437746,26.046064012291531));
#869=IFCPOLYLINE((#867,#868));
#870=IFCGRIDAXIS('8',#869,.T.);
#871=IFCGEOMETRICCURVESET((#869));
#872=IFCCOLOURRGB($,0.,0.,0.);
#873=IFCCURVESTYLE($,$,$,#872);
#874=IFCPRESENTATIONSTYLEASSIGNMENT((#873));
#875=IFCSTYLEDITEM(#871,(#874),$);
#876=IFCCARTESIANPOINT((48.568853415437779,-35.691161969056132));
#877=IFCCARTESIANPOINT((48.568853415437779,26.046064012291531));
#878=IFCPOLYLINE((#876,#877));
#879=IFCGRIDAXIS('9',#878,.T.);
#880=IFCGEOMETRICCURVESET((#878));
#881=IFCCOLOURRGB($,0.,0.,0.);
#882=IFCCURVESTYLE($,$,$,#881);
#883=IFCPRESENTATIONSTYLEASSIGNMENT((#882));
#884=IFCSTYLEDITEM(#880,(#883),$);
#885=IFCCARTESIANPOINT((54.56885341543785,-35.691161969056132));
#886=IFCCARTESIANPOINT((54.56885341543785,26.046064012291531));
#887=IFCPOLYLINE((#885,#886));
#888=IFCGRIDAXIS('10',#887,.T.);
#889=IFCGEOMETRICCURVESET((#887));
#890=IFCCOLOURRGB($,0.,0.,0.);
#891=IFCCURVESTYLE($,$,$,#890);
#892=IFCPRESENTATIONSTYLEASSIGNMENT((#891));
#893=IFCSTYLEDITEM(#889,(#892),$);
#894=IFCCARTESIANPOINT((23.518853415437189,-35.691161969056132));
#895=IFCCARTESIANPOINT((23.518853415437189,26.046064012291531));
#896=IFCPOLYLINE((#894,#895));
#897=IFCGRIDAXIS('4''',#896,.T.);
#898=IFCGEOMETRICCURVESET((#896));
#899=IFCCOLOURRGB($,0.,0.,0.);
#900=IFCCURVESTYLE($,$,$,#899);
#901=IFCPRESENTATIONSTYLEASSIGNMENT((#900));
#902=IFCSTYLEDITEM(#898,(#901),$);
#903=IFCCARTESIANPOINT((35.218853415437216,-35.691161969056132));
#904=IFCCARTESIANPOINT((35.218853415437216,26.046064012291531));
#905=IFCPOLYLINE((#903,#904));
#906=IFCGRIDAXIS('7''',#905,.T.);
#907=IFCGEOMETRICCURVESET((#905));
#908=IFCCOLOURRGB($,0.,0.,0.);
#909=IFCCURVESTYLE($,$,$,#908);
#910=IFCPRESENTATIONSTYLEASSIGNMENT((#909));
#911=IFCSTYLEDITEM(#907,(#910),$);
#912=IFCSHAPEREPRESENTATION(#28,'FootPrint','GeometricCurveSet',(#709,#718,#727,#736,#745,#754,#763,#772,#781,#790,#799,#808,#817,#826,#835,#844,#853,#862,#871,#880,#889,#898,#907));
#913=IFCPRODUCTDEFINITIONSHAPE($,$,(#912));
#914=IFCLOCALPLACEMENT(#32,#48);
#915=IFCGRID('0WAxMBXUv4Y5mdQ_HRXCfZ',#18,'Default Grid',$,$,#914,#913,(#708,#717,#726,#735,#744,#753,#762,#771,#780,#789,#798),(#807,#816,#825,#834,#843,#852,#861,#870,#879,#888,#897,#906),$);
#916=IFCPROPERTYSINGLEVALUE('Name',$,IFCLABEL('Subterr\X\E1neo 1'),$);
#917=IFCPROPERTYSET('3n57qIN4z3fNJh8_jjp4T_',#18,'Pset_AirSideSystemInformation',$,(#916));
#918=IFCPROPERTYSINGLEVALUE('AboveGround',$,IFCLOGICAL(.U.),$);
#919=IFCPROPERTYSET('2kxMfcRy9MT_XsQHObRIt$',#18,'Pset_BuildingStoreyCommon',$,(#918));
#920=IFCPROPERTYSINGLEVALUE('Name',$,IFCLABEL('Subterr\X\E1neo 1'),$);
#921=IFCPROPERTYSET('0747Hpw9N7xWAt511oYLPd',#18,'Pset_ProductRequirements',$,(#920));
#922=IFCRELDEFINESBYPROPERTIES('2oxkLyUbQF_xrN$OPKXcNE',#18,$,$,(#38),#917);
#923=IFCRELDEFINESBYPROPERTIES('3I9DUChT1clm7A4HYaI6CC',#18,$,$,(#38),#919);
#924=IFCRELDEFINESBYPROPERTIES('1x_4Z2NTNoHeAsm4k9ziDj',#18,$,$,(#38),#921);
#925=IFCPROPERTYSINGLEVALUE('Category',$,IFCLABEL('Levels'),$);
#926=IFCPROPERTYSINGLEVALUE('Family',$,IFCLABEL('Level'),$);
#927=IFCPROPERTYSINGLEVALUE('Family and Type',$,IFCLABEL('Level: Extremo inicial 8 mm'),$);
#928=IFCPROPERTYSINGLEVALUE('Type',$,IFCLABEL('Extremo inicial 8 mm'),$);
#929=IFCPROPERTYSINGLEVALUE('Type Id',$,IFCLABEL('305'),$);
#930=IFCPROPERTYSINGLEVALUE('Elevation',$,IFCLENGTHMEASURE(312.89999999999901),$);
#931=IFCPROPERTYSINGLEVALUE('Computation Height',$,IFCLENGTHMEASURE(0.),$);
#932=IFCPROPERTYSINGLEVALUE('Building Story',$,IFCBOOLEAN(.T.),$);
#933=IFCPROPERTYSINGLEVALUE('Name',$,IFCTEXT('Subterr\X\E1neo 1'),$);
#934=IFCPROPERTYSINGLEVALUE('Structural',$,IFCBOOLEAN(.F.),$);
#935=IFCPROPERTYSINGLEVALUE('Family Name',$,IFCTEXT('Level'),$);
#936=IFCPROPERTYSINGLEVALUE('Elevation Base',$,IFCIDENTIFIER('Survey Point'),$);
#937=IFCPROPERTYSINGLEVALUE('Color',$,IFCINTEGER(0),$);
#938=IFCPROPERTYSINGLEVALUE('Line Pattern',$,IFCLABEL('Centro'),$);
#939=IFCPROPERTYSINGLEVALUE('Line Weight',$,IFCIDENTIFIER('1'),$);
#940=IFCPROPERTYSINGLEVALUE('Symbol',$,IFCLABEL('M_Extremo inicial de nivel - C\X\EDrculo'),$);
#941=IFCPROPERTYSINGLEVALUE('Symbol at End 1 Default',$,IFCBOOLEAN(.F.),$);
#942=IFCPROPERTYSINGLEVALUE('Symbol at End 2 Default',$,IFCBOOLEAN(.T.),$);
#943=IFCPROPERTYSINGLEVALUE('Type Name',$,IFCTEXT('Extremo inicial 8 mm'),$);
#944=IFCPROPERTYSET('1fH$UPyT_uJG$SUENf6DZx',#18,'Other',$,(#925,#926,#927,#928,#929));
#945=IFCPROPERTYSET('1pAKNaUaKwxLJlN21UXwYm',#18,'Constraints',$,(#930));
#946=IFCPROPERTYSET('0xzNQU7ObJRZEfKNDTqDU1',#18,'Dimensions',$,(#931));
#947=IFCPROPERTYSET('2CJESWhVCdoUOy9R2tMZ5T',#18,'Identity Data',$,(#932,#933,#934));
#948=IFCPROPERTYSET('0RebOt7$8TnRMn9KtqamA_',#18,'Other(Type)',$,(#925,#935));
#949=IFCPROPERTYSET('0S3CFhDI5J0$qg$oGL0KnP',#18,'Constraints(Type)',$,(#936));
#950=IFCPROPERTYSET('3m99yqLvx3CSiObwBDgW2h',#18,'Graphics(Type)',$,(#937,#938,#939,#940,#941,#942));
#951=IFCPROPERTYSET('3LJlar30C_0K7oBcb8$a0g',#18,'Identity Data(Type)',$,(#943));
#952=IFCRELCONTAINEDINSPATIALSTRUCTURE('3SSLc2v_51oxgAmmU7ir_F',#18,$,$,(#282),#38);
#953=IFCPROPERTYSINGLEVALUE('Name',$,IFCLABEL('Nivel 1'),$);
#954=IFCPROPERTYSET('3pajDo1QSo$Zr5kcJ7WZvz',#18,'Pset_AirSideSystemInformation',$,(#953));
#955=IFCPROPERTYSET('2QFFSloDKLdASEirlNrsWG',#18,'Pset_BuildingStoreyCommon',$,(#918));
#956=IFCPROPERTYSINGLEVALUE('Name',$,IFCLABEL('Nivel 1'),$);
#957=IFCPROPERTYSET('0Jn3ZcoXbsSExgN1KMPBrd',#18,'Pset_ProductRequirements',$,(#956));
#958=IFCRELDEFINESBYPROPERTIES('1Da_uB3ifLZAiBs8ApqL8T',#18,$,$,(#42),#954);
#959=IFCRELDEFINESBYPROPERTIES('24vWbHxUvnwTMhwrnGQFQP',#18,$,$,(#42),#955);
#960=IFCRELDEFINESBYPROPERTIES('3dNMqG5qInx8MCGyv3CU_c',#18,$,$,(#42),#957);
#961=IFCPROPERTYSINGLEVALUE('Elevation',$,IFCLENGTHMEASURE(317.14999999999969),$);
#962=IFCPROPERTYSINGLEVALUE('Name',$,IFCTEXT('Nivel 1'),$);
#963=IFCPROPERTYSET('0HHtaL1rG40J8hYllmlo2X',#18,'Other',$,(#925,#926,#927,#928,#929));
#964=IFCPROPERTYSET('0jW5y7yS9DBz2dx2sPeSIr',#18,'Constraints',$,(#961));
#965=IFCPROPERTYSET('0xBbxa3AM6sCv6QOiUfv_q',#18,'Dimensions',$,(#931));
#966=IFCPROPERTYSET('3epwOoF5smDrBDyAaD3_7q',#18,'Identity Data',$,(#932,#934,#962));
#967=IFCRELCONTAINEDINSPATIALSTRUCTURE('3Zu5Bv0LOHrPC10066FoQQ',#18,$,$,(#493),#42);
#968=IFCPROPERTYSINGLEVALUE('Name',$,IFCLABEL('Nivel 2'),$);
#969=IFCPROPERTYSET('2mTLlmyrfKDEBBLtdwqw7L',#18,'Pset_AirSideSystemInformation',$,(#968));
#970=IFCPROPERTYSET('2y6jqut2mGsxPM5c1zUPr2',#18,'Pset_BuildingStoreyCommon',$,(#918));
#971=IFCPROPERTYSINGLEVALUE('Name',$,IFCLABEL('Nivel 2'),$);
#972=IFCPROPERTYSET('1NhGbMdWc6$OcOXv1TJ_Wu',#18,'Pset_ProductRequirements',$,(#971));
#973=IFCRELDEFINESBYPROPERTIES('16d15dL922K3ec_Ua5xAkw',#18,$,$,(#46),#969);
#974=IFCRELDEFINESBYPROPERTIES('03h9WtlPXy$ENv9AiS5UZC',#18,$,$,(#46),#970);
#975=IFCRELDEFINESBYPROPERTIES('0ZduuN29N$9gX6yyEYBAf0',#18,$,$,(#46),#972);
#976=IFCPROPERTYSINGLEVALUE('Elevation',$,IFCLENGTHMEASURE(321.4000000000018),$);
#977=IFCPROPERTYSINGLEVALUE('Name',$,IFCTEXT('Nivel 2'),$);
#978=IFCPROPERTYSET('3qDK9WhR9e4D3_PlqIJ19r',#18,'Other',$,(#925,#926,#927,#928,#929));
#979=IFCPROPERTYSET('0iUz_nPodmYNcychWky3pN',#18,'Constraints',$,(#976));
#980=IFCPROPERTYSET('0$i1dxTB7pN8LElYkEbWrL',#18,'Dimensions',$,(#931));
#981=IFCPROPERTYSET('2Eq08$eC1$FjhTfa4cOqA2',#18,'Identity Data',$,(#932,#934,#977));
#982=IFCRELCONTAINEDINSPATIALSTRUCTURE('15Z0v90RiHrPC20066FoKR',#18,$,$,(#704),#46);
#983=IFCPROPERTYSINGLEVALUE('Name',$,IFCLABEL('Nivel 3'),$);
#984=IFCPROPERTYSET('0r6o$bJhELuRd33MPjFZP9',#18,'Pset_AirSideSystemInformation',$,(#983));
#985=IFCPROPERTYSET('0FjZcKtWul4Ly5Ckp9qPvn',#18,'Pset_BuildingStoreyCommon',$,(#918));
#986=IFCPROPERTYSINGLEVALUE('Name',$,IFCLABEL('Nivel 3'),$);
#987=IFCPROPERTYSET('1C2rjc67NhKVtXO$Lx8J4e',#18,'Pset_ProductRequirements',$,(#986));
#988=IFCRELDEFINESBYPROPERTIES('17ZXJ4WbJvtkn3z0USHAZF',#18,$,$,(#50),#984);
#989=IFCRELDEFINESBYPROPERTIES('3nP7_Gh1W3V4N05GgFHe7S',#18,$,$,(#50),#985);
#990=IFCRELDEFINESBYPROPERTIES('3F2wd5Y5_UshXHg_ebT0Zp',#18,$,$,(#50),#987);
#991=IFCPROPERTYSINGLEVALUE('Elevation',$,IFCLENGTHMEASURE(325.64999999999907),$);
#992=IFCPROPERTYSINGLEVALUE('Name',$,IFCTEXT('Nivel 3'),$);
#993=IFCPROPERTYSET('0Qnze5plBpsPeZlPgDjht8',#18,'Other',$,(#925,#926,#927,#928,#929));
#994=IFCPROPERTYSET('0bHt_Ka4fegKSCbiQq1hWL',#18,'Constraints',$,(#991));
#995=IFCPROPERTYSET('3UdE_e9_Q_sDZ3gwjMZ_ds',#18,'Dimensions',$,(#931));
#996=IFCPROPERTYSET('2jSX0EPIZEzD56frlXVViA',#18,'Identity Data',$,(#932,#934,#992));
#997=IFCRELCONTAINEDINSPATIALSTRUCTURE('3SSLc2v_51oxgAmmU7ir_4',#18,$,$,(#915),#50);
#998=IFCPROPERTYSINGLEVALUE('Name',$,IFCLABEL('Nivel 4'),$);
#999=IFCPROPERTYSET('1f_qW5xbXBH_eM7hzDRbxF',#18,'Pset_AirSideSystemInformation',$,(#998));
#1000=IFCPROPERTYSET('25WdaKRbZEfpb2lfG$aKSQ',#18,'Pset_BuildingStoreyCommon',$,(#918));
#1001=IFCPROPERTYSINGLEVALUE('Name',$,IFCLABEL('Nivel 4'),$);
#1002=IFCPROPERTYSET('0xw4SiwbXX37lp5EdE76zG',#18,'Pset_ProductRequirements',$,(#1001));
#1003=IFCRELDEFINESBYPROPERTIES('0i_hpX35S$2QOmurK78ygm',#18,$,$,(#54),#999);
#1004=IFCRELDEFINESBYPROPERTIES('0s9J_381KjShmvPjHU_idD',#18,$,$,(#54),#1000);
#1005=IFCRELDEFINESBYPROPERTIES('0k3HGqGJQkUcqsB_VpVIuL',#18,$,$,(#54),#1002);
#1006=IFCPROPERTYSINGLEVALUE('Elevation',$,IFCLENGTHMEASURE(329.8499999999986),$);
#1007=IFCPROPERTYSINGLEVALUE('Name',$,IFCTEXT('Nivel 4'),$);
#1008=IFCPROPERTYSET('3dAvRwIn_tnjTs9FxtNJyU',#18,'Other',$,(#925,#926,#927,#928,#929));
#1009=IFCPROPERTYSET('3BfmGZ$AmbebljIShcvAQC',#18,'Constraints',$,(#1006));
#1010=IFCPROPERTYSET('1Z5kL6zNDZcSRtKeEM2osq',#18,'Dimensions',$,(#931));
#1011=IFCPROPERTYSET('2TBgWmpgA$zKqJ93m4uPv6',#18,'Identity Data',$,(#932,#934,#1007));
#1012=IFCRELAGGREGATES('3GbxydyPX2yOBUHTYCcQ43',#18,$,$,#29,(#59));
#1013=IFCRELAGGREGATES('0$SP6mdEoz9FxIG6XVvQwp',#18,$,$,#59,(#34));
#1014=IFCRELAGGREGATES('27PCKGLxT4mxtV9cw6mgBW',#18,$,$,#34,(#38,#42,#46,#50,#54));
#1015=IFCPROPERTYSINGLEVALUE('NumberOfStoreys',$,IFCINTEGER(4),$);
#1016=IFCPROPERTYSINGLEVALUE('IsLandmarked',$,IFCLOGICAL(.U.),$);
#1017=IFCPROPERTYSET('3xtPN9_ZP_bPoWLCr7U26D',#18,'Pset_BuildingCommon',$,(#1015,#1016));
#1018=IFCRELDEFINESBYPROPERTIES('2k8GmfDrTws7BoyIoRNoUB',#18,$,$,(#34),#1017);
#1019=IFCRELDEFINESBYPROPERTIES('1z3PuIwwcJAruYsRojK_NE',#18,$,$,(#42),#963);
#1020=IFCRELDEFINESBYPROPERTIES('3QFRc56QPQ_ksodfxGpfVK',#18,$,$,(#42),#964);
#1021=IFCRELDEFINESBYPROPERTIES('20EpnogUyP6LyHy7EPyR6p',#18,$,$,(#42),#965);
#1022=IFCRELDEFINESBYPROPERTIES('1Nl$vhk5mYRj7ZmGSkepAb',#18,$,$,(#42),#966);
#1023=IFCRELDEFINESBYPROPERTIES('3aABUbMW_eQeH1$nMKhPFi',#18,$,$,(#46),#978);
#1024=IFCRELDEFINESBYPROPERTIES('2aom4gmW2RJaED1NZ0EpBw',#18,$,$,(#46),#979);
#1025=IFCRELDEFINESBYPROPERTIES('3ER6MkBLNc0cFPR$5IjTBv',#18,$,$,(#46),#980);
#1026=IFCRELDEFINESBYPROPERTIES('17Nmn6H2xTBkGcTipfry18',#18,$,$,(#46),#981);
#1027=IFCRELDEFINESBYPROPERTIES('15NoPv95SM0TzN2oeN1nIm',#18,$,$,(#34,#59),#70);
#1028=IFCRELDEFINESBYPROPERTIES('3YMNNLX_CLFOyWRydDq1ed',#18,$,$,(#34,#59),#71);
#1029=IFCRELDEFINESBYPROPERTIES('2QsrjFAXWhFdqk5B54C4m1',#18,$,$,(#50),#993);
#1030=IFCRELDEFINESBYPROPERTIES('2o$xlPBiJ5ML$lvr0Q4Lhn',#18,$,$,(#50),#994);
#1031=IFCRELDEFINESBYPROPERTIES('3j_YrupiD0BtqbEe_1Wryu',#18,$,$,(#50),#995);
#1032=IFCRELDEFINESBYPROPERTIES('04r1371Y8DrPiz2tGuU04u',#18,$,$,(#50),#996);
#1033=IFCRELDEFINESBYPROPERTIES('2KvL$_PzGRfiTIipuJrve2',#18,$,$,(#38),#944);
#1034=IFCRELDEFINESBYPROPERTIES('2RdN_CXAEDjbLR$_UG6vCl',#18,$,$,(#38),#945);
#1035=IFCRELDEFINESBYPROPERTIES('1rAASxDrRz_idhmg1gFImJ',#18,$,$,(#38),#946);
#1036=IFCRELDEFINESBYPROPERTIES('3nPGo8pOCmDuuL_3$Lbmqk',#18,$,$,(#38),#947);
#1037=IFCRELDEFINESBYPROPERTIES('0_23l$SsWU1S8rur9FwumJ',#18,$,$,(#54),#1008);
#1038=IFCRELDEFINESBYPROPERTIES('1yASjNMK8fqrzx2zZ912RN',#18,$,$,(#54),#1009);
#1039=IFCRELDEFINESBYPROPERTIES('1Ciimi$bWlBcquU8LawyM_',#18,$,$,(#54),#1010);
#1040=IFCRELDEFINESBYPROPERTIES('1I6o4xhqSkWnhxsPkL9iA$',#18,$,$,(#54),#1011);
#1041=IFCRELDEFINESBYPROPERTIES('1YbdlahgqIYD0TFGVYPQjB',#18,$,$,(#38,#42,#46,#50,#54),#948);
#1042=IFCRELDEFINESBYPROPERTIES('1edevBTiIkusLo8p2QTcoi',#18,$,$,(#38,#42,#46,#50,#54),#949);
#1043=IFCRELDEFINESBYPROPERTIES('1GT0CZ$P94uVYOnvnMlfzg',#18,$,$,(#38,#42,#46,#50,#54),#950);
#1044=IFCRELDEFINESBYPROPERTIES('35sqGsjCyUtvdKtmpJcRvg',#18,$,$,(#38,#42,#46,#50,#54),#951);
#1045=IFCPRESENTATIONLAYERASSIGNMENT('S-GRID',$,(#279,#490,#701,#912),$);
#1046=IFCUNITASSIGNMENT((#19,#20,#21));
ENDSEC;

END-ISO-10303-21;